<?xml version="1.0" standalone="no"?>
<!DOCTYPE svg PUBLIC "-//W3C//DTD SVG 20010904//EN"
 "http://www.w3.org/TR/2001/REC-SVG-20010904/DTD/svg10.dtd">
<svg version="1.0" xmlns="http://www.w3.org/2000/svg"
 width="512.000000pt" height="512.000000pt" viewBox="0 0 512.000000 512.000000"
 preserveAspectRatio="xMidYMid meet">
<metadata>
Created by potrace 1.11, written by Peter Selinger 2001-2013
</metadata>
<g transform="translate(0.000000,512.000000) scale(0.100000,-0.100000)"
fill="#000000" stroke="none">
<path d="M2370 5113 c-371 -35 -653 -114 -961 -269 -406 -203 -782 -548 -1029
-944 -179 -286 -309 -655 -362 -1025 -17 -118 -17 -512 0 -630 42 -295 120
-553 242 -800 137 -280 272 -468 494 -691 221 -220 412 -357 681 -489 188 -92
309 -137 500 -185 500 -126 1002 -102 1490 71 149 53 407 183 540 271 560 374
951 942 1095 1588 33 150 50 291 57 465 15 426 -73 832 -263 1214 -125 252
-264 448 -461 652 -213 219 -428 376 -708 514 -296 146 -572 225 -900 255
-102 9 -333 11 -415 3z m525 -297 c552 -86 1061 -371 1407 -788 276 -332 448
-713 515 -1140 24 -157 24 -499 0 -656 -144 -923 -808 -1657 -1702 -1883 -588
-148 -1223 -52 -1736 263 -587 360 -969 934 -1076 1620 -24 158 -24 499 0 658
65 412 233 794 488 1107 326 399 774 676 1269 787 101 22 148 29 320 50 73 9
419 -4 515 -18z"/>
<path d="M2270 4624 c-834 -121 -1517 -730 -1726 -1541 -85 -332 -87 -702 -5
-1027 95 -373 277 -693 550 -967 329 -328 743 -534 1199 -594 145 -19 399 -19
547 0 928 122 1667 862 1790 1793 19 145 19 399 0 545 -87 662 -495 1250
-1087 1567 -223 118 -463 194 -731 230 -108 14 -422 11 -537 -6z m645 -294
c55 -11 153 -39 219 -61 609 -202 1063 -719 1198 -1364 20 -97 23 -138 23
-345 0 -207 -3 -248 -23 -345 -152 -727 -700 -1275 -1427 -1427 -97 -20 -138
-23 -345 -23 -207 0 -248 3 -344 23 -730 154 -1276 699 -1428 1427 -20 98 -23
137 -23 350 1 272 12 348 85 568 202 606 736 1076 1360 1196 155 30 148 29
385 26 179 -2 239 -7 320 -25z"/>
<path d="M2422 3975 c-240 -121 -359 -468 -242 -711 51 -105 162 -170 276
-161 114 9 221 80 301 200 73 109 98 195 98 338 0 113 -1 116 -38 191 -60 123
-143 178 -267 178 -46 0 -72 -7 -128 -35z"/>
<path d="M3273 3666 c-140 -45 -254 -177 -310 -353 -22 -73 -25 -95 -21 -185
6 -124 30 -195 90 -262 62 -72 106 -91 208 -91 78 0 90 3 148 34 264 143 363
568 181 776 -72 82 -193 115 -296 81z"/>
<path d="M1642 3525 c-97 -27 -195 -107 -263 -213 -82 -130 -108 -336 -60
-477 32 -91 110 -174 186 -196 168 -48 351 56 449 256 82 164 86 338 12 483
-62 121 -197 182 -324 147z"/>
<path d="M2520 2843 c-52 -11 -127 -46 -273 -130 -84 -47 -280 -149 -437 -227
-262 -129 -290 -145 -345 -201 -63 -62 -117 -154 -151 -255 -14 -40 -19 -84
-19 -160 1 -90 4 -112 24 -153 86 -176 303 -248 691 -232 l165 6 60 -30 c33
-17 134 -90 225 -162 91 -73 189 -143 218 -157 223 -102 487 56 565 338 41
145 27 245 -53 403 -76 148 -131 290 -200 512 -34 110 -75 227 -91 261 -33 71
-99 136 -167 167 -47 20 -160 31 -212 20z"/>
<path d="M3678 2777 c-160 -45 -292 -197 -338 -388 -42 -176 -13 -323 86 -429
57 -61 116 -85 204 -84 245 3 465 336 410 624 -38 200 -198 323 -362 277z"/>
</g>
</svg>
